<?xml version="1.0" encoding="UTF-8" standalone="no"?>
<!-- Created with Inkscape (http://www.inkscape.org/) -->

<svg
   xmlns:dc="http://purl.org/dc/elements/1.1/"
   xmlns:cc="http://creativecommons.org/ns#"
   xmlns:rdf="http://www.w3.org/1999/02/22-rdf-syntax-ns#"
   xmlns:svg="http://www.w3.org/2000/svg"
   xmlns="http://www.w3.org/2000/svg"
   xmlns:sodipodi="http://sodipodi.sourceforge.net/DTD/sodipodi-0.dtd"
   xmlns:inkscape="http://www.inkscape.org/namespaces/inkscape"
   width="800px"
   height="600px"
   id="svg12508"
   version="1.1"
   inkscape:version="0.48.4 r9939"
   sodipodi:docname="splash.png">
  <defs
     id="defs12510" />
  <sodipodi:namedview
     id="base"
     pagecolor="#ffffff"
     bordercolor="#666666"
     borderopacity="1.0"
     inkscape:pageopacity="0.0"
     inkscape:pageshadow="2"
     inkscape:zoom="1.2"
     inkscape:cx="246.64192"
     inkscape:cy="288.916"
     inkscape:current-layer="layer1"
     inkscape:document-units="px"
     showgrid="false"
     inkscape:window-width="1920"
     inkscape:window-height="1005"
     inkscape:window-x="-9"
     inkscape:window-y="-9"
     inkscape:window-maximized="1" />
  <metadata
     id="metadata12513">
    <rdf:RDF>
      <cc:Work
         rdf:about="">
        <dc:format>image/svg+xml</dc:format>
        <dc:type
           rdf:resource="http://purl.org/dc/dcmitype/StillImage" />
        <dc:title></dc:title>
      </cc:Work>
    </rdf:RDF>
  </metadata>
  <g
     id="layer1"
     inkscape:label="Layer 1"
     inkscape:groupmode="layer">
    <path
       style="font-size:34.25989914000000200px;font-style:normal;font-variant:normal;font-weight:bold;font-stretch:normal;text-align:center;line-height:125%;letter-spacing:0px;word-spacing:0px;text-anchor:middle;fill:#000000;fill-opacity:1;stroke:none;font-family:Verdana;-inkscape-font-specification:Verdana Bold"
       d="M 251.4375 66.84375 C 244.07189 66.843794 238.32343 68.845978 234.1875 72.875 L 247.78125 75.59375 C 249.29134 75.082613 250.94807 74.812534 252.78125 74.8125 C 254.44125 74.812536 256.02121 75.059453 257.5 75.5 C 258.97873 75.940617 260.26828 76.44955 261.375 77.0625 C 262.329 77.579739 263.3446 78.200035 264.375 78.9375 L 267.9375 79.65625 L 267.9375 70.625 C 264.82729 69.111736 262.00646 68.10142 259.46875 67.59375 C 256.93097 67.086166 254.24235 66.843794 251.4375 66.84375 z M 548.15625 67.625 C 541.30623 67.625044 535.92372 69.599815 532.03125 73.59375 C 528.33334 77.388107 526.40405 82.509475 526.21875 88.90625 L 537.65625 89.4375 C 537.69316 87.14534 537.96909 85.108488 538.53125 83.34375 C 539.13228 81.456937 539.88969 79.979004 540.84375 78.90625 C 541.87409 77.756938 543.01927 76.935584 544.25 76.4375 C 545.48069 75.939485 546.79458 75.687536 548.1875 75.6875 C 549.56129 75.687536 550.88735 75.95158 552.15625 76.46875 C 553.42509 76.98599 554.52685 77.819438 555.5 78.96875 C 556.45401 80.079816 557.22096 81.543138 557.8125 83.34375 C 558.40397 85.144418 558.71871 87.308152 558.71875 89.875 C 558.71875 90.067551 558.69093 90.24897 558.6875 90.4375 L 570.09375 90.96875 C 570.10476 90.614485 570.125 90.268424 570.125 89.90625 C 570.12495 83.029359 568.16152 77.587761 564.25 73.59375 C 560.3384 69.599815 554.98714 67.625044 548.15625 67.625 z M 136.46875 67.65625 L 136.46875 77.65625 L 154.84375 80.15625 L 149.25 67.65625 L 136.46875 67.65625 z M 168.40625 67.65625 L 162.375 81.1875 L 170.03125 82.25 L 170.21875 81.8125 L 170.21875 82.28125 L 181.15625 83.75 L 181.15625 67.65625 L 168.40625 67.65625 z M 352.84375 68.5 L 343.1875 94.78125 L 354.3125 97.03125 L 357.71875 94.78125 L 353.8125 94.78125 L 359.03125 79.4375 L 363.0625 91.25 L 365 90 L 363.09375 91.34375 L 364.28125 94.78125 L 358.21875 94.78125 L 354.875 97.15625 L 356.65625 97.5 L 354.65625 97.3125 L 337.90625 109.125 L 337.125 111.28125 L 348.1875 111.28125 L 351.125 102.65625 L 366.9375 102.65625 L 369.875 111.28125 L 381.25 111.28125 L 378.21875 103 L 364.15625 94.15625 L 377.6875 101.59375 L 374.90625 94.0625 L 370.84375 93.34375 L 374.8125 93.8125 L 365.5 68.5 L 352.84375 68.5 z M 450.28125 68.5 L 450.28125 73.71875 L 470.90625 68.5 L 450.28125 68.5 z M 287.25 70.1875 L 282.6875 82.625 L 292.25 84.5625 L 293.4375 81.125 L 294.78125 85.0625 L 306.21875 87.34375 L 299.90625 70.1875 L 287.25 70.1875 z M 504.03125 70.25 C 498.44056 70.250044 493.83981 71.481059 490.28125 74 C 486.72268 76.51902 484.96875 79.796885 484.96875 83.78125 C 484.96875 86.750421 485.73833 89.216997 487.3125 91.21875 C 488.88666 93.220548 491.4753 94.800267 495.0625 95.96875 C 496.62711 96.485973 498.30968 96.914791 500.09375 97.25 C 501.87778 97.585242 503.55344 97.960651 505.15625 98.34375 C 506.68269 98.707725 507.83312 99.226235 508.625 99.90625 C 509.41683 100.58629 509.81247 101.40513 509.8125 102.34375 C 509.81247 103.35902 509.54377 104.1078 509 104.625 C 508.45617 105.14221 507.77703 105.56145 506.9375 105.90625 C 506.25057 106.17444 505.36883 106.38507 504.28125 106.5 C 503.19362 106.61494 502.32406 106.65626 501.65625 106.65625 C 499.06124 106.65626 496.34565 106.1957 493.53125 105.21875 C 490.71682 104.24182 488.17686 102.81981 485.90625 101 L 484.6875 101 L 484.6875 106.5625 L 516.25 110.21875 C 519.47675 107.63807 521.12496 104.35645 521.125 100.34375 C 521.12496 97.393779 520.36755 95.0048 518.8125 93.15625 C 517.25738 91.307741 514.82528 89.853997 511.5625 88.78125 C 509.90244 88.244914 508.34682 87.806518 506.90625 87.5 C 505.46563 87.193534 503.97085 86.888175 502.40625 86.5625 C 500.02113 86.064478 498.42112 85.509685 497.5625 84.90625 C 496.70385 84.302873 496.24999 83.44272 496.25 82.3125 C 496.24999 81.565457 496.52822 80.896784 497.0625 80.3125 C 497.59675 79.728283 498.22458 79.287371 498.96875 79 C 499.80829 78.655231 500.68739 78.405798 501.59375 78.28125 C 502.50007 78.156773 503.42785 78.093786 504.34375 78.09375 C 506.93871 78.093786 509.47868 78.570981 511.96875 79.5 C 514.45876 80.429088 516.56394 81.589567 518.28125 82.96875 L 519.4375 82.96875 L 519.4375 73.09375 C 517.43398 72.270094 515.08181 71.608481 512.34375 71.0625 C 509.60563 70.516604 506.8361 70.250044 504.03125 70.25 z M 481.09375 70.75 L 450.28125 76.96875 L 450.28125 102.5625 L 481.09375 106.15625 L 481.09375 103 L 461.21875 103 L 461.21875 92.4375 L 479.65625 92.4375 L 479.65625 84.15625 L 461.21875 84.15625 L 461.21875 76.78125 L 481.09375 76.78125 L 481.09375 70.75 z M 380.5625 72.6875 L 386.59375 95.1875 L 397.3125 96.40625 L 395.46875 88.0625 L 385.84375 90 L 395.34375 87.59375 L 392.03125 72.6875 L 380.5625 72.6875 z M 406.4375 72.6875 L 402.96875 85.65625 L 419.59375 81.46875 L 417.375 72.6875 L 406.4375 72.6875 z M 431.71875 72.6875 L 430.3125 78.75 L 442.0625 75.78125 L 442.90625 72.6875 L 431.71875 72.6875 z M 625.6875 72.6875 L 625.6875 93.5625 L 655.09375 94.9375 L 655.09375 88.34375 L 636.625 88.34375 L 636.625 80.96875 L 656.53125 80.96875 L 656.53125 72.6875 L 625.6875 72.6875 z M 574.34375 73.5 L 574.34375 91.15625 L 584.6875 91.65625 L 584.6875 87.65625 L 586.40625 91.71875 L 595.4375 92.15625 L 587.09375 73.5 L 574.34375 73.5 z M 606.25 73.5 L 597.875 92.28125 L 605.9375 92.65625 L 608.0625 87.65625 L 608.0625 92.75 L 619 93.25 L 619 73.5 L 606.25 73.5 z M 441.28125 78.78125 L 429.75 81.125 L 425.40625 99.6875 L 435.375 100.84375 L 441.28125 78.78125 z M 190.34375 81.21875 L 190.34375 85.03125 L 201.28125 86.53125 L 201.28125 82.28125 L 190.34375 81.21875 z M 420 83.09375 L 402.71875 86.59375 L 400.03125 96.71875 L 408.90625 97.75 L 411.625 87.59375 L 414.59375 98.4375 L 424.1875 99.53125 L 420 83.09375 z M 228.21875 84.90625 C 228.02701 86.223895 227.9375 87.594499 227.9375 89.03125 C 227.9375 89.41849 227.9561 89.778315 227.96875 90.15625 L 239.53125 91.75 C 239.41437 90.830764 239.34375 89.866892 239.34375 88.84375 C 239.34375 87.855576 239.40746 86.918191 239.53125 86.03125 L 228.21875 84.90625 z M 248.4375 86.90625 L 248.4375 94.96875 L 256.9375 94.96875 L 256.9375 103.34375 C 256.51769 103.38207 256.06811 103.41835 255.5625 103.4375 C 255.05683 103.45666 254.576 103.46876 254.15625 103.46875 C 249.27154 103.46876 245.59331 102.22816 243.09375 99.71875 C 241.278 97.89589 240.153 95.464163 239.65625 92.46875 L 228.125 92.40625 C 228.69925 97.78308 230.68183 102.11636 234.09375 105.40625 C 238.19611 109.36192 243.84303 111.34375 251.09375 111.34375 C 254.22297 111.34375 257.38289 110.9875 260.53125 110.25 C 263.67954 109.5125 266.18563 108.74708 268.09375 108 L 268.09375 88.8125 L 248.53125 86.90625 L 248.4375 86.90625 z M 208.46875 87.5 L 219.75 89.03125 L 219.75 87.5 L 208.46875 87.5 z M 526.1875 89.84375 C 526.18746 89.865182 526.1875 89.88479 526.1875 89.90625 C 526.1875 96.725717 528.13876 102.14313 532.03125 106.15625 C 535.92372 110.16938 541.30623 112.1875 548.15625 112.1875 C 555.0253 112.1875 560.38873 110.16938 564.28125 106.15625 C 567.07894 103.27182 568.86792 99.647019 569.65625 95.3125 C 567.30452 95.016136 560.47875 94.167193 558.40625 93.90625 C 558.28243 94.686252 558.13708 95.438527 557.9375 96.125 C 557.42228 97.896922 556.63099 99.44742 555.5625 100.75 C 554.60843 101.89936 553.49713 102.73532 552.21875 103.28125 C 550.94031 103.8272 549.59945 104.09376 548.1875 104.09375 C 546.7755 104.09376 545.43464 103.84887 544.15625 103.3125 C 542.87782 102.77615 541.73527 101.9427 540.78125 100.8125 C 539.82719 99.682322 539.08195 98.197327 538.5 96.40625 C 538.02648 94.949001 537.745 93.237405 537.65625 91.28125 C 528.10415 90.081005 529.15439 90.21128 526.1875 89.84375 z M 279.96875 90 L 271.5 112.96875 L 282.59375 112.96875 L 285.53125 104.3125 L 301.34375 104.3125 L 304.28125 112.96875 L 315.65625 112.96875 L 308.21875 92.75 L 297.03125 91.65625 L 298.6875 96.46875 L 288.1875 96.46875 L 290.0625 90.96875 L 279.96875 90 z M 136.46875 91.84375 L 136.46875 110.46875 L 146.84375 110.46875 L 146.84375 91.90625 L 136.46875 91.84375 z M 151.15625 91.9375 L 154.75 100.40625 L 162.34375 100.40625 L 165.90625 92.03125 L 151.15625 91.9375 z M 170.21875 92.0625 L 170.21875 110.46875 L 181.15625 110.46875 L 181.15625 92.125 L 170.21875 92.0625 z M 190.34375 92.15625 L 190.34375 114.625 L 221.15625 114.625 L 221.15625 106.34375 L 201.28125 106.34375 L 201.28125 95.78125 L 219.75 95.78125 L 219.75 92.34375 L 190.34375 92.15625 z M 574.34375 95.90625 L 574.34375 116.3125 L 584.6875 116.3125 L 584.6875 97.21875 C 582.15628 96.899437 576.61833 96.19299 574.34375 95.90625 z M 342.6875 96.125 L 338.5625 107.375 L 353.96875 97.25 L 342.6875 96.125 z M 386.84375 96.125 L 390.15625 108.46875 L 402.90625 115.46875 L 404.1875 115.46875 L 408.34375 99.875 L 399.59375 98.34375 L 398.59375 102.125 L 397.6875 98 L 386.84375 96.125 z M 588.96875 97.75 L 592.59375 106.25 L 600.1875 106.25 L 603.03125 99.53125 C 598.9257 99.012789 592.55969 98.203116 588.96875 97.75 z M 608.0625 100.15625 L 608.0625 116.3125 L 619 116.3125 L 619 101.5625 C 615.31895 101.09729 611.40615 100.5786 608.0625 100.15625 z M 415.34375 101.09375 L 419.28125 115.46875 L 431.4375 115.46875 L 434.40625 104.40625 L 415.34375 101.09375 z M 625.6875 102.40625 L 625.6875 115.46875 L 656.53125 115.46875 L 656.53125 107.1875 L 636.625 107.1875 L 636.625 103.78125 C 632.36792 103.24284 629.58136 102.8985 625.6875 102.40625 z M 450.28125 107.15625 L 450.28125 111.28125 L 474 111.28125 L 450.28125 107.15625 z M 390.8125 110.96875 L 392.03125 115.46875 L 397.96875 115.46875 L 390.8125 110.96875 z M 460.90625 137.875 L 458 145.78125 L 466.5 150.46875 L 467.0625 148.84375 L 467.875 151.21875 L 481.125 158.5 L 473.53125 137.875 L 460.90625 137.875 z M 323.3125 139.5625 C 320.06874 139.56254 317.08183 140.09063 314.34375 141.125 C 311.60564 142.15945 309.31958 143.60362 307.46875 145.5 C 305.54158 147.47308 304.04253 149.83535 303.03125 152.59375 C 302.01996 155.35221 301.53125 158.4532 301.53125 161.84375 C 301.53125 165.48336 302.06601 168.69118 303.125 171.46875 C 304.18398 174.24634 305.66658 176.54815 307.59375 178.40625 C 308.42528 179.20799 309.31061 179.93355 310.28125 180.5625 L 316.78125 172.6875 C 315.7083 171.66767 314.81189 170.30949 314.09375 168.59375 C 313.34004 166.79312 312.93749 164.52558 312.9375 161.84375 C 312.93749 159.2769 313.30354 157.11317 314 155.3125 C 314.69643 153.51189 315.59297 152.06066 316.71875 150.96875 C 317.90174 149.83859 319.20083 149.01976 320.59375 148.53125 C 321.98662 148.04281 323.45443 147.81254 325 147.8125 C 326.39287 147.81254 327.68505 148.01611 328.90625 148.4375 C 330.12739 148.85896 331.26302 149.38705 332.3125 150 C 333.08525 150.45977 333.78271 150.91123 334.4375 151.375 L 338.375 146.59375 L 338.375 143.125 C 337.59265 142.74193 336.66487 142.3252 335.625 141.875 C 334.58506 141.42488 333.43463 141.02025 332.15625 140.65625 C 330.93505 140.33064 329.59682 140.07618 328.15625 139.875 C 326.71562 139.67391 325.10607 139.56254 323.3125 139.5625 z M 426.71875 139.5625 C 423.47499 139.56254 420.48808 140.09063 417.75 141.125 C 415.01189 142.15945 412.72583 143.60362 410.875 145.5 C 408.94783 147.47308 407.48003 149.83535 406.46875 152.59375 C 405.45746 155.35221 404.9375 158.4532 404.9375 161.84375 C 404.9375 165.48336 405.47226 168.69118 406.53125 171.46875 C 407.59023 174.24634 409.07283 176.54815 411 178.40625 C 412.92715 180.26436 415.22539 181.65512 417.90625 182.59375 C 420.58708 183.53238 423.52007 184 426.6875 184 C 428.82452 184 430.49755 183.89821 431.71875 183.6875 C 432.93989 183.47679 434.26332 183.18352 435.65625 182.78125 C 436.72474 182.47476 437.74559 182.10893 438.71875 181.6875 C 439.69183 181.26608 440.71269 180.82265 441.78125 180.34375 L 441.78125 170.09375 L 440.625 170.09375 C 440.10978 170.5535 439.45761 171.11787 438.65625 171.75 C 437.85482 172.38215 436.99742 172.97574 436.0625 173.53125 C 434.95578 174.22087 433.7445 174.75399 432.4375 175.15625 C 431.13044 175.55853 429.80438 175.75001 428.46875 175.75 C 427.07583 175.75001 425.64979 175.54392 424.21875 175.09375 C 422.78767 174.6436 421.50766 173.89733 420.34375 172.84375 C 419.19889 171.80935 418.25368 170.3944 417.5 168.59375 C 416.74629 166.79312 416.37499 164.52558 416.375 161.84375 C 416.37499 159.2769 416.70979 157.11317 417.40625 155.3125 C 418.10268 153.51189 418.99922 152.06066 420.125 150.96875 C 421.30799 149.83859 422.60708 149.01976 424 148.53125 C 425.39287 148.04281 426.86068 147.81254 428.40625 147.8125 C 429.79912 147.81254 431.12255 148.01611 432.34375 148.4375 C 433.56489 148.85896 434.70052 149.38705 435.75 150 C 436.78033 150.61302 437.68903 151.21164 438.5 151.84375 C 439.3109 152.47592 439.99695 153.04029 440.53125 153.5 L 441.78125 153.5 L 441.78125 143.125 C 440.9989 142.74193 440.07112 142.3252 439.03125 141.875 C 437.99131 141.42488 436.84088 141.02025 435.5625 140.65625 C 434.3413 140.33064 433.00307 140.07618 431.5625 139.875 C 430.12187 139.67391 428.51232 139.56254 426.71875 139.5625 z M 495.46875 140.40625 L 495.46875 166.375 L 506.40625 172.40625 L 506.40625 167.5 L 511.46875 167.5 L 521.09375 180.46875 L 526.03125 183.1875 L 536.5 183.1875 L 522.28125 164.84375 C 524.99069 163.52202 527.07153 161.86722 528.53125 159.875 C 529.99089 157.88283 530.71871 155.31698 530.71875 152.15625 C 530.71871 149.85759 530.25696 147.92917 529.3125 146.40625 C 528.36796 144.8834 527.10275 143.64533 525.5 142.6875 C 523.91626 141.72975 522.21889 141.09988 520.40625 140.8125 C 518.59355 140.52521 516.42489 140.40629 513.90625 140.40625 L 495.46875 140.40625 z M 219.1875 141.21875 L 219.1875 184 L 222.0625 184 L 230.125 178.6875 L 230.125 168.3125 L 235.1875 168.3125 L 238.6875 173.0625 L 247.34375 167.375 L 246.03125 165.6875 C 248.74069 164.36577 250.82153 162.71097 252.28125 160.71875 C 253.74089 158.72658 254.46871 156.12948 254.46875 152.96875 C 254.46871 150.67009 253.97571 148.77292 253.03125 147.25 C 252.08671 145.72715 250.8215 144.48908 249.21875 143.53125 C 247.63501 142.5735 245.93764 141.94363 244.125 141.65625 C 242.3123 141.36896 240.14364 141.21879 237.625 141.21875 L 219.1875 141.21875 z M 275.28125 143.71875 L 272.71875 150.6875 L 283.3125 143.71875 L 275.28125 143.71875 z M 558.375 143.78125 C 552.78431 143.78129 548.21481 145.04356 544.65625 147.5625 C 541.09768 150.08152 539.3125 153.32813 539.3125 157.3125 C 539.3125 160.28167 540.11333 162.7795 541.6875 164.78125 C 543.26166 166.78305 545.81905 168.36277 549.40625 169.53125 C 550.97086 170.04847 552.65343 170.47729 554.4375 170.8125 C 556.22153 171.14774 557.92844 171.52315 559.53125 171.90625 C 561.05769 172.27022 562.20812 172.78873 563 173.46875 C 563.79183 174.14879 564.18747 174.93638 564.1875 175.875 C 564.18747 176.89027 563.91877 177.6703 563.375 178.1875 C 562.83117 178.70471 562.15203 179.12395 561.3125 179.46875 C 560.62557 179.73694 559.71258 179.94757 558.625 180.0625 C 557.53737 180.17744 556.66781 180.21876 556 180.21875 C 553.40499 180.21876 550.6894 179.72695 547.875 178.75 C 545.06057 177.77307 542.52061 176.38231 540.25 174.5625 L 539.0625 174.5625 L 539.0625 184.8125 C 541.35219 185.77029 543.81388 186.56494 546.4375 187.1875 C 549.0611 187.81006 552.12629 188.125 555.65625 188.125 C 561.76208 188.125 566.59765 186.82142 570.15625 184.1875 C 573.71478 181.55359 575.49996 178.12053 575.5 173.90625 C 575.49996 170.95628 574.7113 168.5673 573.15625 166.71875 C 571.60113 164.87024 569.20028 163.38525 565.9375 162.3125 C 564.27744 161.77616 562.72182 161.36902 561.28125 161.0625 C 559.84063 160.75603 558.34585 160.45067 556.78125 160.125 C 554.39613 159.62698 552.76487 159.07218 551.90625 158.46875 C 551.0476 157.86537 550.62499 157.00522 550.625 155.875 C 550.62499 155.12796 550.90322 154.45928 551.4375 153.875 C 551.97175 153.29078 552.59958 152.84987 553.34375 152.5625 C 554.18329 152.21773 555.06239 151.9683 555.96875 151.84375 C 556.87507 151.71927 557.7716 151.65629 558.6875 151.65625 C 561.28246 151.65629 563.82243 152.13348 566.3125 153.0625 C 568.80251 153.99159 570.90769 155.15207 572.625 156.53125 L 573.8125 156.53125 L 573.8125 146.65625 C 571.80898 145.83259 569.42556 145.17098 566.6875 144.625 C 563.94938 144.0791 561.17985 143.78129 558.375 143.78125 z M 288.125 144.3125 L 270.46875 156.78125 L 259.53125 186.53125 L 270.59375 186.53125 L 273.5625 177.875 L 289.34375 177.875 L 292.3125 186.53125 L 303.65625 186.53125 L 288.125 144.3125 z M 346.5 145.40625 L 346.5 182.65625 L 352.1875 145.40625 L 346.5 145.40625 z M 360.96875 145.40625 L 361.5 153.6875 L 377.3125 153.6875 L 377.3125 145.40625 L 360.96875 145.40625 z M 506.40625 148.28125 L 510.375 148.28125 C 511.69155 148.28128 512.85153 148.30799 513.84375 148.375 C 514.83593 148.44208 515.69332 148.63104 516.4375 148.9375 C 517.506 149.37812 518.27986 149.9838 518.71875 150.75 C 519.15758 151.51626 519.37497 152.42731 519.375 153.5 C 519.37497 154.70684 519.19672 155.65669 518.84375 156.375 C 518.49073 157.09337 517.91945 157.74995 517.15625 158.34375 C 516.35483 158.95676 515.37048 159.35887 514.1875 159.53125 C 513.00447 159.70368 511.53666 159.78127 509.78125 159.78125 L 506.40625 159.78125 L 506.40625 148.28125 z M 230.125 149.09375 L 234.125 149.09375 C 235.44155 149.09378 236.57028 149.12049 237.5625 149.1875 C 238.55468 149.25458 239.44332 149.44354 240.1875 149.75 C 241.256 150.19062 241.99861 150.7963 242.4375 151.5625 C 242.87633 152.32876 243.09372 153.27106 243.09375 154.34375 C 243.09372 155.55059 242.91547 156.50044 242.5625 157.21875 C 242.20948 157.93712 241.66945 158.5937 240.90625 159.1875 C 240.10483 159.80051 239.08923 160.20262 237.90625 160.375 C 236.72322 160.54743 235.25541 160.62502 233.5 160.625 L 230.125 160.625 L 230.125 149.09375 z M 455.75 151.875 L 445.15625 180.6875 L 456.21875 180.6875 L 459.1875 172.03125 L 474.96875 172.03125 L 477.9375 180.6875 L 489.28125 180.6875 L 485.59375 170.6875 L 471.5 161.8125 L 472.3125 164.1875 L 461.84375 164.1875 L 464.21875 157.21875 L 455.75 151.875 z M 281.4375 154.6875 L 286.6875 170.03125 L 276.21875 170.03125 L 281.4375 154.6875 z M 361.96875 161.0625 L 362.5 169.34375 L 375.875 169.34375 L 375.875 161.0625 L 361.96875 161.0625 z M 337.21875 170.09375 C 336.70353 170.5535 336.05136 171.11787 335.25 171.75 C 334.44857 172.38215 333.59117 172.97574 332.65625 173.53125 C 331.54953 174.22087 330.33825 174.75399 329.03125 175.15625 C 328.97929 175.17224 328.92702 175.17217 328.875 175.1875 C 327.36409 178.21462 325.93283 181.15802 324.59375 183.96875 C 326.07336 183.93232 327.37313 183.84958 328.3125 183.6875 C 329.53364 183.47679 330.85707 183.18352 332.25 182.78125 C 333.31849 182.47476 334.33934 182.10893 335.3125 181.6875 C 336.28558 181.26608 337.30644 180.82265 338.375 180.34375 L 338.375 170.09375 L 337.21875 170.09375 z M 250.21875 171.09375 L 241.71875 177.125 L 246.8125 184 L 260.25 184 L 250.21875 171.09375 z M 495.46875 176.90625 L 495.46875 183.1875 L 505.4375 183.1875 L 495.46875 176.90625 z M 363.1875 179.90625 L 363.71875 188.1875 L 377.3125 188.1875 L 377.3125 179.90625 L 363.1875 179.90625 z "
       id="text12516" />
    <text
       xml:space="preserve"
       style="font-size:14px;font-style:normal;font-weight:normal;line-height:125%;letter-spacing:0px;word-spacing:0px;fill:#000000;fill-opacity:1;stroke:none;font-family:Sans"
       x="474.16666"
       y="66.666664"
       id="text12520"
       sodipodi:linespacing="125%"><tspan
         sodipodi:role="line"
         id="tspan12522"></tspan></text>
    <text
       xml:space="preserve"
       style="font-size:14px;font-style:normal;font-weight:normal;line-height:125%;letter-spacing:0px;word-spacing:0px;fill:#000000;fill-opacity:1;stroke:none;font-family:Sans"
       x="474.16666"
       y="70.833336"
       id="text12528"
       sodipodi:linespacing="125%"><tspan
         sodipodi:role="line"
         id="tspan12530"
         x="474.16666"
         y="70.833336"></tspan><tspan
         sodipodi:role="line"
         id="tspan12532"
         x="474.16666"
         y="88.333336" /></text>
    <path
       style="font-size:34.25989914000000200px;font-style:normal;font-variant:normal;font-weight:bold;font-stretch:normal;text-align:center;line-height:125%;letter-spacing:0px;word-spacing:0px;text-anchor:middle;fill:#000000;fill-opacity:1;stroke:none;font-family:Verdana;-inkscape-font-specification:Verdana Bold"
       d="m 132.46875,77.65625 0,14.1875 10.375,0.0625 0,-10.09375 4.3125,10.125 14.75,0.09375 4.125,-9.78125 -7.65625,-1.0625 -3.53125,7.9375 -4,-8.96875 -18.375,-2.5 z m 33.75,4.625 0,9.78125 10.9375,0.0625 0,-8.375 -10.9375,-1.46875 z m 20.125,2.75 0,7.125 29.40625,0.1875 0,-3.3125 -11.28125,-1.53125 -7.1875,0 0,-0.96875 -10.9375,-1.5 z m 37.625,5.125 c 0.0257,0.767419 0.0784,1.520949 0.15625,2.25 l 11.53125,0.0625 c -0.0392,-0.236461 -0.094,-0.474982 -0.125,-0.71875 l -11.5625,-1.59375 z"
       id="text12538"
       inkscape:connector-curvature="0" />
    <path
       style="font-size:34.25989914000000200px;font-style:normal;font-variant:normal;font-weight:bold;font-stretch:normal;text-align:center;line-height:125%;letter-spacing:0px;word-spacing:0px;text-anchor:middle;fill:#000000;fill-opacity:1;stroke:none;font-family:Verdana;-inkscape-font-specification:Verdana Bold"
       d="m 363.33333,91.666667 -1.93301,1.247107 0.0311,0.09353 1.90191,-1.340637 z m -7.2644,4.770185 -19.11192,12.564608 -0.65473,1.74595 20.26549,-14.310558 -0.49884,0 z m -74.23406,48.824248 -10.56923,6.95263 -2.24479,6.07964 17.61538,-12.43989 -0.21824,-0.59238 -4.58312,0 z m -35.88551,23.60151 -8.63622,5.67434 3.02424,4.05309 8.48033,-6.01729 -2.86835,-3.71014 z m -17.1789,11.28632 -8.04384,5.30021 8.04384,0 0,-5.30021 z"
       id="path12550"
       inkscape:connector-curvature="0" />
    <path
       style="font-size:34.25989914000000200px;font-style:normal;font-variant:normal;font-weight:bold;font-stretch:normal;text-align:center;line-height:125%;letter-spacing:0px;word-spacing:0px;text-anchor:middle;fill:#000000;fill-opacity:1;stroke:none;font-family:Verdana;-inkscape-font-specification:Verdana Bold"
       d="m 365.82292,96.65625 14.0625,8.84375 -0.53125,-1.40625 -13.53125,-7.4375 z m 26,14.3125 0.65625,2.5 7.15625,4.5 4.9375,0 -12.75,-7 z m 67.84375,37.3125 -2.25,6.09375 8.46875,5.34375 2.28125,-6.75 -8.5,-4.6875 z m 9.875,5.4375 3.625,10.59375 14.09375,8.875 -4.46875,-12.1875 -13.25,-7.28125 z m 27.59375,15.15625 0,10.53125 9.96875,6.28125 0.96875,0 0,-10.78125 -10.9375,-6.03125 z m 25.625,14.09375 2,2.71875 2.9375,0 -4.9375,-2.71875 z"
       id="path12558"
       inkscape:connector-curvature="0" />
    <path
       style="font-size:34.25989914000000200px;font-style:normal;font-variant:normal;font-weight:bold;font-stretch:normal;text-align:center;line-height:125%;letter-spacing:0px;word-spacing:0px;text-anchor:middle;fill:#000000;fill-opacity:1;stroke:none;font-family:Verdana;-inkscape-font-specification:Verdana Bold"
       d="m 529.55208,88.90625 c -0.009,0.315577 -0.0307,0.615616 -0.0312,0.9375 2.96689,0.36753 1.91665,0.237255 11.46875,1.4375 -0.0203,-0.448077 -0.0312,-0.900178 -0.0312,-1.375 0,-0.161184 0.0287,-0.310118 0.0312,-0.46875 l -11.4375,-0.53125 z m 32.46875,1.53125 c -0.0227,1.247647 -0.11117,2.397346 -0.28125,3.46875 2.0725,0.260943 8.89827,1.109886 11.25,1.40625 0.25023,-1.375836 0.39021,-2.821926 0.4375,-4.34375 L 562.02083,90.4375 z m 15.65625,0.71875 0,4.75 c 2.27458,0.28674 7.81253,0.993187 10.34375,1.3125 l 0,-5.5625 -10.34375,-0.5 z m 12.0625,0.5625 2.5625,6.03125 c 3.59094,0.453116 9.95695,1.262789 14.0625,1.78125 l 2.90625,-6.875 -8.0625,-0.375 -1.1875,2.6875 -1.25,-2.8125 -9.03125,-0.4375 z m 21.65625,1.03125 0,7.40625 c 3.34365,0.42235 7.25645,0.94104 10.9375,1.40625 l 0,-8.3125 -10.9375,-0.5 z m 17.625,0.8125 0,8.84375 c 3.89386,0.49225 6.68042,0.83659 10.9375,1.375 l 0,-7.15625 18.46875,0 0,-1.6875 -29.40625,-1.375 z"
       id="path12568"
       inkscape:connector-curvature="0" />
    <path
       style="font-size:34.25989914000000200px;font-style:normal;font-variant:normal;font-weight:bold;font-stretch:normal;text-align:center;line-height:125%;letter-spacing:0px;word-spacing:0px;text-anchor:middle;fill:#000000;fill-opacity:1;stroke:none;font-family:Verdana;-inkscape-font-specification:Verdana Bold"
       d="m 336.70833,148.26042 -4.02522,4.88777 c 0.22312,0.15803 0.46361,0.31764 0.67087,0.47919 0.82897,0.64625 1.49835,1.2232 2.04456,1.69315 l 1.30979,0 0,-7.06011 z m -22.07481,26.67506 -6.64481,8.05044 c 1.30739,0.84715 2.75467,1.53099 4.31273,2.07651 2.74056,0.95954 5.73889,1.43757 8.97688,1.43757 0.50417,0 0.88795,-0.0208 1.34174,-0.0319 1.36891,-2.87335 2.83206,-5.88232 4.37663,-8.97688 -1.28452,0.37847 -2.58633,0.57504 -3.89743,0.57503 -1.42396,1e-5 -2.88177,-0.21067 -4.34469,-0.67087 -1.46296,-0.46018 -2.77148,-1.22307 -3.96132,-2.30012 -0.0552,-0.0499 -0.10545,-0.10814 -0.15973,-0.15974 z"
       id="path12577"
       inkscape:connector-curvature="0" />
    <path
       style="font-size:34.25989914000000200px;font-style:normal;font-variant:normal;font-weight:bold;font-stretch:normal;text-align:center;line-height:125%;letter-spacing:0px;word-spacing:0px;text-anchor:middle;fill:#000000;fill-opacity:1;stroke:none;font-family:Verdana;-inkscape-font-specification:Verdana Bold"
       d="m 374.17708,93.34375 4.0625,0.71875 -0.0937,-0.25 -3.96875,-0.46875 z m 15.75,1.84375 0.25,0.9375 10.84375,1.875 -0.375,-1.59375 -10.71875,-1.21875 z m 13.4375,1.53125 -0.4375,1.625 8.75,1.53125 0.5625,-2.125 -8.875,-1.03125 z m 14.5625,1.71875 0.75,2.65625 19.0625,3.3125 0.96875,-3.5625 -9.96875,-1.15625 -0.5625,2.4375 -0.65625,-2.59375 -9.59375,-1.09375 z m 35.6875,4.125 0,4.59375 23.71875,4.125 7.09375,0 0,-5.125 -30.8125,-3.59375 z m 34.40625,4 0,4.71875 c 2.28969,0.95779 4.75138,1.72119 7.375,2.34375 2.6236,0.62256 5.72004,0.9375 9.25,0.9375 6.10583,0 10.91015,-1.30358 14.46875,-3.9375 0.17022,-0.12599 0.30665,-0.27661 0.46875,-0.40625 l -31.5625,-3.65625 z"
       id="path12585"
       inkscape:connector-curvature="0" />
    <path
       style="font-size:34.25989914000000200px;font-style:normal;font-variant:normal;font-weight:bold;font-stretch:normal;text-align:center;line-height:125%;letter-spacing:0px;word-spacing:0px;text-anchor:middle;fill:#000000;fill-opacity:1;stroke:none;font-family:Verdana;-inkscape-font-specification:Verdana Bold"
       d="m 473.40625,67.666667 -20.625,5.21875 0,3.25 30.8125,-6.21875 0,-2.25 -10.1875,0 z m -28.84375,7.28125 -11.75,2.96875 -0.5625,2.375 11.53125,-2.34375 0.78125,-3 z m -22.46875,5.6875 -16.625,4.1875 -0.25,0.9375 17.28125,-3.5 -0.40625,-1.625 z m -24.25,6.125 -9.5,2.40625 9.625,-1.9375 -0.125,-0.46875 z"
       id="path12593"
       inkscape:connector-curvature="0" />
    <path
       style="font-size:34.25989914000000200px;font-style:normal;font-variant:normal;font-weight:bold;font-stretch:normal;text-align:center;line-height:125%;letter-spacing:0px;word-spacing:0px;text-anchor:middle;fill:#000000;fill-opacity:1;stroke:none;font-family:Verdana;-inkscape-font-specification:Verdana Bold"
       d="m 187.84375,71.010417 0,9.375 10.9375,1.0625 0,-2.15625 19.875,0 0,-8.28125 -30.8125,0 z m 43.84375,1.03125 c -0.0212,0.02065 -0.0414,0.04174 -0.0625,0.0625 -3.24556,3.190767 -5.21091,7.190407 -5.90625,11.96875 l 11.3125,1.125 c 0.16657,-1.193436 0.44422,-2.296007 0.84375,-3.3125 0.69643,-1.771879 1.67289,-3.225623 2.875,-4.375 1.25931,-1.187624 2.66627,-2.081543 4.25,-2.65625 0.092,-0.03339 0.18809,-0.06222 0.28125,-0.09375 l -13.59375,-2.71875 z m 30.1875,6.0625 c 1.03032,0.737528 1.80945,1.316509 2.34375,1.71875 l 1.21875,0 0,-1 -3.5625,-0.71875 z m 18.3125,3.6875 -2.71875,7.375 10.09375,0.96875 2.1875,-6.40625 -9.5625,-1.9375 z m 12.09375,2.4375 2.25,6.59375 11.1875,1.09375 -2,-5.40625 -11.4375,-2.28125 z m -46.25,1.84375 19.5625,1.90625 0,-1.90625 -19.5625,0 z m 94.65625,7.875 -0.5,1.34375 11.28125,1.125 0.34375,-0.21875 -11.125,-2.25 z m 11.6875,2.375 -0.21875,0.15625 2,0.1875 -1.78125,-0.34375 z"
       id="path12608"
       inkscape:connector-curvature="0" />
    <path
       style="font-size:34.25989914000000200px;font-style:normal;font-variant:normal;font-weight:bold;font-stretch:normal;text-align:center;line-height:125%;letter-spacing:0px;word-spacing:0px;text-anchor:middle;fill:#000000;fill-opacity:1;stroke:none;font-family:Verdana;-inkscape-font-specification:Verdana Bold"
       d="m 352.1875,147.07292 -5.6875,37.25 0,5.53125 17.21875,0 -0.53125,-8.28125 -5.75,0 0,-10.5625 5.0625,0 -0.53125,-8.28125 -4.53125,0 0,-7.375 4.0625,0 -0.53125,-8.28125 -8.78125,0 z"
       id="path12616"
       inkscape:connector-curvature="0" />
  </g>
</svg>
