<?xml version="1.0" encoding="UTF-8" standalone="no"?>
<!-- Created with Inkscape (http://www.inkscape.org/) -->

<svg
   xmlns:dc="http://purl.org/dc/elements/1.1/"
   xmlns:cc="http://creativecommons.org/ns#"
   xmlns:rdf="http://www.w3.org/1999/02/22-rdf-syntax-ns#"
   xmlns:svg="http://www.w3.org/2000/svg"
   xmlns="http://www.w3.org/2000/svg"
   xmlns:xlink="http://www.w3.org/1999/xlink"
   xmlns:sodipodi="http://sodipodi.sourceforge.net/DTD/sodipodi-0.dtd"
   xmlns:inkscape="http://www.inkscape.org/namespaces/inkscape"
   width="216"
   height="216"
   id="svg7435"
   version="1.1"
   inkscape:version="0.48.4 r9939"
   sodipodi:docname="1.png">
  <defs
     id="defs7437">
    <pattern
       id="SVGID_23_"
       xlink:href="#SVGID_7_"
       patternTransform="matrix(0.7155 -0.7071 -0.7155 -0.7071 -4821.4717 -11470.9785)" />
    <pattern
       x="716"
       y="1282"
       width="192"
       height="96"
       patternUnits="userSpaceOnUse"
       id="SVGID_7_"
       viewBox="0 -96 192 96"
       overflow="visible">
      <g
         id="g5671">
        <polygon
           fill="none"
           points="0,0 192,0 192,-96 0,-96   "
           id="polygon5673" />
        <g
           id="g5675">
          <polygon
             fill="none"
             points="0,-96 192,-96 192,0 0,0    "
             id="polygon5677" />
          <polygon
             fill="#E6E6E6"
             points="12,-96 0,-96 0,0 12,0    "
             id="polygon5679" />
          <polygon
             fill="#C1272D"
             points="24,-96 12,-96 12,0 24,0    "
             id="polygon5681" />
          <polygon
             fill="#E6E6E6"
             points="36,-96 24,-96 24,0 36,0    "
             id="polygon5683" />
          <polygon
             fill="#C1272D"
             points="48,-96 36,-96 36,0 48,0    "
             id="polygon5685" />
          <polygon
             fill="#E6E6E6"
             points="60,-96 48,-96 48,0 60,0    "
             id="polygon5687" />
          <polygon
             fill="#C1272D"
             points="72,-96 60,-96 60,0 72,0    "
             id="polygon5689" />
          <polygon
             fill="#E6E6E6"
             points="84,-96 72,-96 72,0 84,0    "
             id="polygon5691" />
          <polygon
             fill="#C1272D"
             points="96,-96 84,-96 84,0 96,0    "
             id="polygon5693" />
          <polygon
             fill="#E6E6E6"
             points="108,-96 96,-96 96,0 108,0    "
             id="polygon5695" />
          <polygon
             fill="#C1272D"
             points="120,-96 108,-96 108,0 120,0    "
             id="polygon5697" />
          <polygon
             fill="#E6E6E6"
             points="132,-96 120,-96 120,0 132,0    "
             id="polygon5699" />
          <polygon
             fill="#C1272D"
             points="144,-96 132,-96 132,0 144,0    "
             id="polygon5701" />
          <polygon
             fill="#E6E6E6"
             points="156,-96 144,-96 144,0 156,0    "
             id="polygon5703" />
          <polygon
             fill="#C1272D"
             points="168,-96 156,-96 156,0 168,0    "
             id="polygon5705" />
          <polygon
             fill="#E6E6E6"
             points="180,-96 168,-96 168,0 180,0    "
             id="polygon5707" />
          <polygon
             fill="#C1272D"
             points="192,-96 180,-96 180,0 192,0    "
             id="polygon5709" />
        </g>
      </g>
    </pattern>
    <pattern
       id="SVGID_17_"
       xlink:href="#SVGID_1_"
       patternTransform="matrix(0.7071 0.7155 0.7071 -0.7155 -4167.8057 -11694.9961)" />
    <pattern
       x="716"
       y="1282"
       width="192"
       height="96"
       patternUnits="userSpaceOnUse"
       id="SVGID_1_"
       viewBox="0 -96 192 96"
       overflow="visible">
      <g
         id="g5138">
        <polygon
           fill="none"
           points="0,0 192,0 192,-96 0,-96   "
           id="polygon5140" />
        <g
           id="g5142">
          <polygon
             fill="none"
             points="0,-96 192,-96 192,0 0,0    "
             id="polygon5144" />
          <polygon
             fill="#E6E6E6"
             points="12,-96 0,-96 0,0 12,0    "
             id="polygon5146" />
          <polygon
             fill="#C1272D"
             points="24,-96 12,-96 12,0 24,0    "
             id="polygon5148" />
          <polygon
             fill="#E6E6E6"
             points="36,-96 24,-96 24,0 36,0    "
             id="polygon5150" />
          <polygon
             fill="#C1272D"
             points="48,-96 36,-96 36,0 48,0    "
             id="polygon5152" />
          <polygon
             fill="#E6E6E6"
             points="60,-96 48,-96 48,0 60,0    "
             id="polygon5154" />
          <polygon
             fill="#C1272D"
             points="72,-96 60,-96 60,0 72,0    "
             id="polygon5156" />
          <polygon
             fill="#E6E6E6"
             points="84,-96 72,-96 72,0 84,0    "
             id="polygon5158" />
          <polygon
             fill="#C1272D"
             points="96,-96 84,-96 84,0 96,0    "
             id="polygon5160" />
          <polygon
             fill="#E6E6E6"
             points="108,-96 96,-96 96,0 108,0    "
             id="polygon5162" />
          <polygon
             fill="#C1272D"
             points="120,-96 108,-96 108,0 120,0    "
             id="polygon5164" />
          <polygon
             fill="#E6E6E6"
             points="132,-96 120,-96 120,0 132,0    "
             id="polygon5166" />
          <polygon
             fill="#C1272D"
             points="144,-96 132,-96 132,0 144,0    "
             id="polygon5168" />
          <polygon
             fill="#E6E6E6"
             points="156,-96 144,-96 144,0 156,0    "
             id="polygon5170" />
          <polygon
             fill="#C1272D"
             points="168,-96 156,-96 156,0 168,0    "
             id="polygon5172" />
          <polygon
             fill="#E6E6E6"
             points="180,-96 168,-96 168,0 180,0    "
             id="polygon5174" />
          <polygon
             fill="#C1272D"
             points="192,-96 180,-96 180,0 192,0    "
             id="polygon5176" />
        </g>
      </g>
    </pattern>
  </defs>
  <sodipodi:namedview
     id="base"
     pagecolor="#ffffff"
     bordercolor="#666666"
     borderopacity="1.0"
     inkscape:pageopacity="0.0"
     inkscape:pageshadow="2"
     inkscape:zoom="1.4"
     inkscape:cx="71.231495"
     inkscape:cy="95.880487"
     inkscape:document-units="px"
     inkscape:current-layer="layer1"
     showgrid="false"
     fit-margin-top="0"
     fit-margin-left="0"
     fit-margin-right="0"
     fit-margin-bottom="0"
     inkscape:window-width="1920"
     inkscape:window-height="1005"
     inkscape:window-x="-9"
     inkscape:window-y="-9"
     inkscape:window-maximized="1" />
  <metadata
     id="metadata7440">
    <rdf:RDF>
      <cc:Work
         rdf:about="">
        <dc:format>image/svg+xml</dc:format>
        <dc:type
           rdf:resource="http://purl.org/dc/dcmitype/StillImage" />
        <dc:title></dc:title>
      </cc:Work>
    </rdf:RDF>
  </metadata>
  <g
     inkscape:label="Layer 1"
     inkscape:groupmode="layer"
     id="layer1"
     transform="translate(-46.28573,-64.36218)">
    <g
       transform="translate(-1165.8572,-1063.4949)"
       id="g5801">
      <g
         id="g5803">
        <pattern
           id="pattern7585"
           xlink:href="#SVGID_1_"
           patternTransform="matrix(0.7071 0.7155 0.7071 -0.7155 -4167.8057 -11694.9961)" />
        <path
           style="fill:url(#SVGID_17_)"
           inkscape:connector-curvature="0"
           d="m 1212,1135.457 v 10.757 l 131.336,66.45 66.449,131.336 h 10.756 c 3.42,-10.479 7.459,-27.235 7.459,-48 0,-35.811 -12.025,-83.488 -48.006,-119.424 l 0.01,-0.01 c -0.092,-0.093 -0.186,-0.179 -0.277,-0.271 -0.1,-0.1 -0.192,-0.201 -0.295,-0.301 l -0.01,0.01 C 1343.488,1140.024 1295.809,1128 1260,1128 c -20.766,0 -37.523,4.038 -48,7.457 z"
           id="path5806" />
      </g>
      <g
         id="g5808">
        <path
           style="fill:#4d4d4d"
           inkscape:connector-curvature="0"
           d="m 1236,1344 h 192 c 0,-119.294 -96.707,-216 -216,-216 v 192 c 13.254,0 24,10.745 24,24 z"
           id="path5810" />
        <path
           style="fill:#e6e6e6"
           inkscape:connector-curvature="0"
           d="m 1212,1131 v 3 c 115.977,0 210,94.021 210,210 h 3 c 0,-117.636 -95.365,-213 -213,-213 z"
           id="path5812" />
        <path
           style="fill:#e6e6e6"
           inkscape:connector-curvature="0"
           d="m 1212,1314 v 3 c 14.91,0 27,12.093 27,27 h 3 c 0,-16.564 -13.434,-30 -30,-30 z"
           id="path5814" />
      </g>
    </g>
  </g>
</svg>
